<mxfile host="app.diagrams.net" agent="Mozilla/5.0 (Windows NT 10.0; Win64; x64) AppleWebKit/537.36 (KHTML, like Gecko) Chrome/135.0.0.0 Safari/537.36" version="26.2.12">
  <diagram name="Page-1" id="0L7WoCyYu2ubIHQr8FUJ">
    <mxGraphModel dx="1428" dy="751" grid="1" gridSize="10" guides="1" tooltips="1" connect="1" arrows="1" fold="1" page="1" pageScale="1" pageWidth="827" pageHeight="1169" math="0" shadow="0">
      <root>
        <mxCell id="0" />
        <mxCell id="1" parent="0" />
        <mxCell id="NCJA_Nw8-JfYbbTvKrRk-3" style="edgeStyle=orthogonalEdgeStyle;rounded=0;orthogonalLoop=1;jettySize=auto;html=1;entryX=0.5;entryY=0;entryDx=0;entryDy=0;" edge="1" parent="1" source="NCJA_Nw8-JfYbbTvKrRk-1" target="NCJA_Nw8-JfYbbTvKrRk-2">
          <mxGeometry relative="1" as="geometry" />
        </mxCell>
        <mxCell id="NCJA_Nw8-JfYbbTvKrRk-1" value="start" style="ellipse;whiteSpace=wrap;html=1;aspect=fixed;" vertex="1" parent="1">
          <mxGeometry x="360" y="80" width="80" height="80" as="geometry" />
        </mxCell>
        <mxCell id="NCJA_Nw8-JfYbbTvKrRk-2" value="Declare a, b, c" style="rounded=0;whiteSpace=wrap;html=1;" vertex="1" parent="1">
          <mxGeometry x="340" y="220" width="120" height="60" as="geometry" />
        </mxCell>
        <mxCell id="NCJA_Nw8-JfYbbTvKrRk-7" style="edgeStyle=orthogonalEdgeStyle;rounded=0;orthogonalLoop=1;jettySize=auto;html=1;entryX=0.5;entryY=0;entryDx=0;entryDy=0;" edge="1" parent="1" source="NCJA_Nw8-JfYbbTvKrRk-4" target="NCJA_Nw8-JfYbbTvKrRk-6">
          <mxGeometry relative="1" as="geometry" />
        </mxCell>
        <mxCell id="NCJA_Nw8-JfYbbTvKrRk-4" value="read a, b, c" style="shape=parallelogram;perimeter=parallelogramPerimeter;whiteSpace=wrap;html=1;fixedSize=1;" vertex="1" parent="1">
          <mxGeometry x="340" y="350" width="120" height="60" as="geometry" />
        </mxCell>
        <mxCell id="NCJA_Nw8-JfYbbTvKrRk-5" style="edgeStyle=orthogonalEdgeStyle;rounded=0;orthogonalLoop=1;jettySize=auto;html=1;" edge="1" parent="1" source="NCJA_Nw8-JfYbbTvKrRk-2">
          <mxGeometry relative="1" as="geometry">
            <mxPoint x="400" y="350" as="targetPoint" />
          </mxGeometry>
        </mxCell>
        <mxCell id="NCJA_Nw8-JfYbbTvKrRk-8" style="edgeStyle=orthogonalEdgeStyle;rounded=0;orthogonalLoop=1;jettySize=auto;html=1;entryX=0.5;entryY=0;entryDx=0;entryDy=0;" edge="1" parent="1" source="NCJA_Nw8-JfYbbTvKrRk-6" target="NCJA_Nw8-JfYbbTvKrRk-12">
          <mxGeometry relative="1" as="geometry">
            <mxPoint x="160" y="520" as="targetPoint" />
          </mxGeometry>
        </mxCell>
        <mxCell id="NCJA_Nw8-JfYbbTvKrRk-9" style="edgeStyle=orthogonalEdgeStyle;rounded=0;orthogonalLoop=1;jettySize=auto;html=1;entryX=0.5;entryY=0;entryDx=0;entryDy=0;" edge="1" parent="1" source="NCJA_Nw8-JfYbbTvKrRk-6" target="NCJA_Nw8-JfYbbTvKrRk-13">
          <mxGeometry relative="1" as="geometry">
            <mxPoint x="640" y="600" as="targetPoint" />
            <Array as="points">
              <mxPoint x="580" y="520" />
            </Array>
          </mxGeometry>
        </mxCell>
        <mxCell id="NCJA_Nw8-JfYbbTvKrRk-6" value="a &amp;gt; b" style="rhombus;whiteSpace=wrap;html=1;" vertex="1" parent="1">
          <mxGeometry x="360" y="480" width="80" height="80" as="geometry" />
        </mxCell>
        <mxCell id="NCJA_Nw8-JfYbbTvKrRk-10" value="True" style="text;html=1;align=center;verticalAlign=middle;resizable=0;points=[];autosize=1;strokeColor=#005700;fillColor=#008a00;fontColor=#ffffff;" vertex="1" parent="1">
          <mxGeometry x="240" y="488" width="50" height="30" as="geometry" />
        </mxCell>
        <mxCell id="NCJA_Nw8-JfYbbTvKrRk-11" value="False" style="text;html=1;align=center;verticalAlign=middle;resizable=0;points=[];autosize=1;strokeColor=#B20000;fillColor=light-dark(#e51400, #ff1500);fontColor=#ffffff;" vertex="1" parent="1">
          <mxGeometry x="510" y="488" width="50" height="30" as="geometry" />
        </mxCell>
        <mxCell id="NCJA_Nw8-JfYbbTvKrRk-14" style="edgeStyle=orthogonalEdgeStyle;rounded=0;orthogonalLoop=1;jettySize=auto;html=1;" edge="1" parent="1" source="NCJA_Nw8-JfYbbTvKrRk-12">
          <mxGeometry relative="1" as="geometry">
            <mxPoint x="70" y="718" as="targetPoint" />
          </mxGeometry>
        </mxCell>
        <mxCell id="NCJA_Nw8-JfYbbTvKrRk-17" style="edgeStyle=orthogonalEdgeStyle;rounded=0;orthogonalLoop=1;jettySize=auto;html=1;entryX=0.5;entryY=0;entryDx=0;entryDy=0;" edge="1" parent="1" source="NCJA_Nw8-JfYbbTvKrRk-12">
          <mxGeometry relative="1" as="geometry">
            <mxPoint x="374" y="720" as="targetPoint" />
          </mxGeometry>
        </mxCell>
        <mxCell id="NCJA_Nw8-JfYbbTvKrRk-12" value="a &amp;gt; c" style="rhombus;whiteSpace=wrap;html=1;" vertex="1" parent="1">
          <mxGeometry x="170" y="600" width="80" height="80" as="geometry" />
        </mxCell>
        <mxCell id="NCJA_Nw8-JfYbbTvKrRk-24" style="edgeStyle=orthogonalEdgeStyle;rounded=0;orthogonalLoop=1;jettySize=auto;html=1;entryX=0.417;entryY=0.083;entryDx=0;entryDy=0;entryPerimeter=0;" edge="1" parent="1" source="NCJA_Nw8-JfYbbTvKrRk-13" target="NCJA_Nw8-JfYbbTvKrRk-28">
          <mxGeometry relative="1" as="geometry">
            <mxPoint x="440" y="640" as="targetPoint" />
          </mxGeometry>
        </mxCell>
        <mxCell id="NCJA_Nw8-JfYbbTvKrRk-25" style="edgeStyle=orthogonalEdgeStyle;rounded=0;orthogonalLoop=1;jettySize=auto;html=1;entryX=0.592;entryY=-0.033;entryDx=0;entryDy=0;entryPerimeter=0;" edge="1" parent="1" source="NCJA_Nw8-JfYbbTvKrRk-13" target="NCJA_Nw8-JfYbbTvKrRk-29">
          <mxGeometry relative="1" as="geometry">
            <mxPoint x="720" y="640" as="targetPoint" />
          </mxGeometry>
        </mxCell>
        <mxCell id="NCJA_Nw8-JfYbbTvKrRk-13" value="b &amp;gt; c" style="rhombus;whiteSpace=wrap;html=1;" vertex="1" parent="1">
          <mxGeometry x="540" y="600" width="80" height="80" as="geometry" />
        </mxCell>
        <mxCell id="NCJA_Nw8-JfYbbTvKrRk-18" value="True" style="text;html=1;align=center;verticalAlign=middle;resizable=0;points=[];autosize=1;strokeColor=#005700;fillColor=#008a00;fontColor=#ffffff;" vertex="1" parent="1">
          <mxGeometry x="90" y="610" width="50" height="30" as="geometry" />
        </mxCell>
        <mxCell id="NCJA_Nw8-JfYbbTvKrRk-19" value="False" style="text;html=1;align=center;verticalAlign=middle;resizable=0;points=[];autosize=1;strokeColor=#B20000;fillColor=light-dark(#e51400, #ff1500);fontColor=#ffffff;" vertex="1" parent="1">
          <mxGeometry x="290" y="610" width="50" height="30" as="geometry" />
        </mxCell>
        <mxCell id="NCJA_Nw8-JfYbbTvKrRk-33" style="edgeStyle=orthogonalEdgeStyle;rounded=0;orthogonalLoop=1;jettySize=auto;html=1;" edge="1" parent="1" source="NCJA_Nw8-JfYbbTvKrRk-22">
          <mxGeometry relative="1" as="geometry">
            <mxPoint x="370" y="1000" as="targetPoint" />
            <Array as="points">
              <mxPoint x="60" y="1000" />
            </Array>
          </mxGeometry>
        </mxCell>
        <mxCell id="NCJA_Nw8-JfYbbTvKrRk-22" value="a" style="shape=parallelogram;perimeter=parallelogramPerimeter;whiteSpace=wrap;html=1;fixedSize=1;" vertex="1" parent="1">
          <mxGeometry y="720" width="120" height="60" as="geometry" />
        </mxCell>
        <mxCell id="NCJA_Nw8-JfYbbTvKrRk-32" style="edgeStyle=orthogonalEdgeStyle;rounded=0;orthogonalLoop=1;jettySize=auto;html=1;" edge="1" parent="1" source="NCJA_Nw8-JfYbbTvKrRk-23">
          <mxGeometry relative="1" as="geometry">
            <mxPoint x="370" y="990" as="targetPoint" />
          </mxGeometry>
        </mxCell>
        <mxCell id="NCJA_Nw8-JfYbbTvKrRk-23" value="c" style="shape=parallelogram;perimeter=parallelogramPerimeter;whiteSpace=wrap;html=1;fixedSize=1;" vertex="1" parent="1">
          <mxGeometry x="310" y="720" width="120" height="60" as="geometry" />
        </mxCell>
        <mxCell id="NCJA_Nw8-JfYbbTvKrRk-26" value="True" style="text;html=1;align=center;verticalAlign=middle;resizable=0;points=[];autosize=1;strokeColor=#005700;fillColor=#008a00;fontColor=#ffffff;" vertex="1" parent="1">
          <mxGeometry x="480" y="610" width="50" height="30" as="geometry" />
        </mxCell>
        <mxCell id="NCJA_Nw8-JfYbbTvKrRk-27" value="False" style="text;html=1;align=center;verticalAlign=middle;resizable=0;points=[];autosize=1;strokeColor=#B20000;fillColor=light-dark(#e51400, #ff1500);fontColor=#ffffff;" vertex="1" parent="1">
          <mxGeometry x="630" y="610" width="50" height="30" as="geometry" />
        </mxCell>
        <mxCell id="NCJA_Nw8-JfYbbTvKrRk-36" style="edgeStyle=orthogonalEdgeStyle;rounded=0;orthogonalLoop=1;jettySize=auto;html=1;" edge="1" parent="1" source="NCJA_Nw8-JfYbbTvKrRk-28">
          <mxGeometry relative="1" as="geometry">
            <mxPoint x="480" y="1000" as="targetPoint" />
          </mxGeometry>
        </mxCell>
        <mxCell id="NCJA_Nw8-JfYbbTvKrRk-28" value="b" style="shape=parallelogram;perimeter=parallelogramPerimeter;whiteSpace=wrap;html=1;fixedSize=1;" vertex="1" parent="1">
          <mxGeometry x="390" y="800" width="120" height="60" as="geometry" />
        </mxCell>
        <mxCell id="NCJA_Nw8-JfYbbTvKrRk-35" style="edgeStyle=orthogonalEdgeStyle;rounded=0;orthogonalLoop=1;jettySize=auto;html=1;entryX=1;entryY=0.5;entryDx=0;entryDy=0;" edge="1" parent="1" source="NCJA_Nw8-JfYbbTvKrRk-29" target="NCJA_Nw8-JfYbbTvKrRk-30">
          <mxGeometry relative="1" as="geometry">
            <mxPoint x="730" y="1000" as="targetPoint" />
            <Array as="points">
              <mxPoint x="730" y="1000" />
            </Array>
          </mxGeometry>
        </mxCell>
        <mxCell id="NCJA_Nw8-JfYbbTvKrRk-29" value="c" style="shape=parallelogram;perimeter=parallelogramPerimeter;whiteSpace=wrap;html=1;fixedSize=1;" vertex="1" parent="1">
          <mxGeometry x="670" y="800" width="120" height="60" as="geometry" />
        </mxCell>
        <mxCell id="NCJA_Nw8-JfYbbTvKrRk-30" value="" style="ellipse;whiteSpace=wrap;html=1;aspect=fixed;" vertex="1" parent="1">
          <mxGeometry x="374" y="960" width="80" height="80" as="geometry" />
        </mxCell>
        <mxCell id="NCJA_Nw8-JfYbbTvKrRk-31" value="end" style="ellipse;whiteSpace=wrap;html=1;aspect=fixed;" vertex="1" parent="1">
          <mxGeometry x="384" y="970" width="60" height="60" as="geometry" />
        </mxCell>
      </root>
    </mxGraphModel>
  </diagram>
</mxfile>
